%TF.GenerationSoftware,KiCad,Pcbnew,9.0.2*%
%TF.CreationDate,2026-01-23T14:00:27-05:00*%
%TF.ProjectId,Test etching footprints,54657374-2065-4746-9368-696e6720666f,rev?*%
%TF.SameCoordinates,Original*%
%TF.FileFunction,Copper,L1,Top*%
%TF.FilePolarity,Positive*%
%FSLAX46Y46*%
G04 Gerber Fmt 4.6, Leading zero omitted, Abs format (unit mm)*
G04 Created by KiCad (PCBNEW 9.0.2) date 2026-01-23 14:00:27*
%MOMM*%
%LPD*%
G01*
G04 APERTURE LIST*
G04 Aperture macros list*
%AMRoundRect*
0 Rectangle with rounded corners*
0 $1 Rounding radius*
0 $2 $3 $4 $5 $6 $7 $8 $9 X,Y pos of 4 corners*
0 Add a 4 corners polygon primitive as box body*
4,1,4,$2,$3,$4,$5,$6,$7,$8,$9,$2,$3,0*
0 Add four circle primitives for the rounded corners*
1,1,$1+$1,$2,$3*
1,1,$1+$1,$4,$5*
1,1,$1+$1,$6,$7*
1,1,$1+$1,$8,$9*
0 Add four rect primitives between the rounded corners*
20,1,$1+$1,$2,$3,$4,$5,0*
20,1,$1+$1,$4,$5,$6,$7,0*
20,1,$1+$1,$6,$7,$8,$9,0*
20,1,$1+$1,$8,$9,$2,$3,0*%
G04 Aperture macros list end*
%TA.AperFunction,SMDPad,CuDef*%
%ADD10RoundRect,0.150000X-0.725000X-0.150000X0.725000X-0.150000X0.725000X0.150000X-0.725000X0.150000X0*%
%TD*%
%TA.AperFunction,ComponentPad*%
%ADD11RoundRect,0.250000X0.550000X-0.550000X0.550000X0.550000X-0.550000X0.550000X-0.550000X-0.550000X0*%
%TD*%
%TA.AperFunction,ComponentPad*%
%ADD12C,1.600000*%
%TD*%
%TA.AperFunction,SMDPad,CuDef*%
%ADD13R,0.300000X0.300000*%
%TD*%
%TA.AperFunction,SMDPad,CuDef*%
%ADD14R,0.300000X0.900000*%
%TD*%
%TA.AperFunction,SMDPad,CuDef*%
%ADD15R,0.900000X0.300000*%
%TD*%
%TA.AperFunction,SMDPad,CuDef*%
%ADD16R,1.800000X1.800000*%
%TD*%
%TA.AperFunction,Conductor*%
%ADD17C,0.200000*%
%TD*%
G04 APERTURE END LIST*
D10*
%TO.P,U3,8,~{SHDN}*%
%TO.N,unconnected-(U3-~{SHDN}-Pad8)*%
X39500000Y-30500000D03*
%TO.P,U3,7,V+*%
%TO.N,unconnected-(U3-V+-Pad7)*%
X39500000Y-31770000D03*
%TO.P,U3,6*%
%TO.N,unconnected-(U3-Pad6)*%
X39500000Y-33040000D03*
%TO.P,U3,5,V-*%
%TO.N,Net-(U3-V--Pad4)*%
X39500000Y-34310000D03*
%TO.P,U3,4,V-*%
X34350000Y-34310000D03*
%TO.P,U3,3,+*%
%TO.N,unconnected-(U3-+-Pad3)*%
X34350000Y-33040000D03*
%TO.P,U3,2,-*%
%TO.N,unconnected-(U3---Pad2)*%
X34350000Y-31770000D03*
%TO.P,U3,1,FB*%
%TO.N,unconnected-(U3-FB-Pad1)*%
X34350000Y-30500000D03*
%TD*%
D11*
%TO.P,U2,1,GND*%
%TO.N,GND*%
X28620000Y-31120000D03*
D12*
%TO.P,U2,2,TR*%
%TO.N,unconnected-(U2-TR-Pad2)*%
X26080000Y-31120000D03*
%TO.P,U2,3,Q*%
%TO.N,unconnected-(U2-Q-Pad3)*%
X23540000Y-31120000D03*
%TO.P,U2,4,R*%
%TO.N,unconnected-(U2-R-Pad4)*%
X21000000Y-31120000D03*
%TO.P,U2,5,CV*%
%TO.N,unconnected-(U2-CV-Pad5)*%
X21000000Y-23500000D03*
%TO.P,U2,6,THR*%
%TO.N,unconnected-(U2-THR-Pad6)*%
X23540000Y-23500000D03*
%TO.P,U2,7,DIS*%
%TO.N,unconnected-(U2-DIS-Pad7)*%
X26080000Y-23500000D03*
%TO.P,U2,8,VCC*%
%TO.N,Net-(U1-VDD)*%
X28620000Y-23500000D03*
%TD*%
D13*
%TO.P,U1,1,P0.1*%
%TO.N,unconnected-(U1-P0.1-Pad1)*%
X38300000Y-21500000D03*
D14*
%TO.P,U1,2,P0.0*%
%TO.N,unconnected-(U1-P0.0-Pad2)*%
X37800000Y-21200000D03*
%TO.P,U1,3,GND*%
%TO.N,GND*%
X37300000Y-21200000D03*
%TO.P,U1,4,VDD*%
%TO.N,Net-(U1-VDD)*%
X36800000Y-21200000D03*
%TO.P,U1,5,RSTb/C2CK*%
%TO.N,unconnected-(U1-RSTb{slash}C2CK-Pad5)*%
X36300000Y-21200000D03*
D13*
%TO.P,U1,6,P2.0/C2D*%
%TO.N,unconnected-(U1-P2.0{slash}C2D-Pad6)*%
X35800000Y-21500000D03*
D15*
%TO.P,U1,7,P1.6*%
%TO.N,unconnected-(U1-P1.6-Pad7)*%
X35500000Y-22000000D03*
%TO.P,U1,8,P1.5*%
%TO.N,unconnected-(U1-P1.5-Pad8)*%
X35500000Y-22500000D03*
%TO.P,U1,9,P1.4*%
%TO.N,unconnected-(U1-P1.4-Pad9)*%
X35500000Y-23000000D03*
%TO.P,U1,10,P1.3*%
%TO.N,unconnected-(U1-P1.3-Pad10)*%
X35500000Y-23500000D03*
D13*
%TO.P,U1,11,P1.2*%
%TO.N,unconnected-(U1-P1.2-Pad11)*%
X35800000Y-24000000D03*
D14*
%TO.P,U1,12,GND*%
%TO.N,GND*%
X36300000Y-24300000D03*
%TO.P,U1,13,P1.1*%
%TO.N,unconnected-(U1-P1.1-Pad13)*%
X36800000Y-24300000D03*
%TO.P,U1,14,P1.0*%
%TO.N,unconnected-(U1-P1.0-Pad14)*%
X37300000Y-24300000D03*
%TO.P,U1,15,P0.7*%
%TO.N,unconnected-(U1-P0.7-Pad15)*%
X37800000Y-24300000D03*
D13*
%TO.P,U1,16,P0.6*%
%TO.N,unconnected-(U1-P0.6-Pad16)*%
X38300000Y-24000000D03*
D15*
%TO.P,U1,17,P0.5*%
%TO.N,unconnected-(U1-P0.5-Pad17)*%
X38600000Y-23500000D03*
%TO.P,U1,18,P0.4*%
%TO.N,unconnected-(U1-P0.4-Pad18)*%
X38600000Y-23000000D03*
%TO.P,U1,19,P0.3*%
%TO.N,unconnected-(U1-P0.3-Pad19)*%
X38600000Y-22500000D03*
%TO.P,U1,20,P0.2*%
%TO.N,unconnected-(U1-P0.2-Pad20)*%
X38600000Y-22000000D03*
D16*
%TO.P,U1,21,GND*%
%TO.N,GND*%
X37050000Y-22750000D03*
%TD*%
D17*
%TO.N,GND*%
X28620000Y-31120000D02*
X30380000Y-31120000D01*
%TO.N,Net-(U1-VDD)*%
X28620000Y-23500000D02*
X31671000Y-20449000D01*
%TO.N,GND*%
X30380000Y-31120000D02*
X33500000Y-28000000D01*
X33500000Y-28000000D02*
X33500000Y-26000000D01*
%TO.N,Net-(U1-VDD)*%
X31671000Y-20449000D02*
X36751000Y-20449000D01*
%TO.N,GND*%
X33500000Y-26000000D02*
X36000000Y-26000000D01*
X36000000Y-26000000D02*
X36300000Y-25700000D01*
X36300000Y-25700000D02*
X36300000Y-24300000D01*
%TO.N,Net-(U1-VDD)*%
X36751000Y-20449000D02*
X36800000Y-20498000D01*
X36800000Y-20498000D02*
X36800000Y-21200000D01*
%TD*%
M02*
